<svg width="256" height="256" viewBox="0 0 256 256" fill="none" xmlns="http://www.w3.org/2000/svg">
<path d="M228 128C228 131.183 226.736 134.235 224.485 136.485C222.235 138.736 219.183 140 216 140H68.9999L120.52 191.51C122.774 193.764 124.041 196.822 124.041 200.01C124.041 203.198 122.774 206.256 120.52 208.51C118.266 210.764 115.208 212.031 112.02 212.031C108.832 212.031 105.774 210.764 103.52 208.51L31.5199 136.51C30.4012 135.395 29.5136 134.071 28.9079 132.612C28.3022 131.153 27.9905 129.589 27.9905 128.01C27.9905 126.431 28.3022 124.867 28.9079 123.408C29.5136 121.95 30.4012 120.625 31.5199 119.51L103.52 47.5101C104.636 46.3938 105.961 45.5084 107.42 44.9043C108.878 44.3002 110.441 43.9893 112.02 43.9893C113.599 43.9893 115.162 44.3002 116.62 44.9043C118.079 45.5084 119.404 46.3938 120.52 47.5101C121.636 48.6263 122.522 49.9515 123.126 51.4099C123.73 52.8683 124.041 54.4315 124.041 56.0101C124.041 57.5887 123.73 59.1518 123.126 60.6102C122.522 62.0687 121.636 63.3938 120.52 64.5101L68.9999 116H216C219.183 116 222.235 117.264 224.485 119.515C226.736 121.765 228 124.817 228 128Z" fill="black"/>
</svg>
