<svg width="192" height="160" viewBox="0 0 192 160" fill="none" xmlns="http://www.w3.org/2000/svg">
<path d="M189.66 85.6601L117.66 157.66C116.159 159.161 114.123 160.005 112 160.005C109.877 160.005 107.841 159.161 106.34 157.66C104.839 156.159 103.996 154.123 103.996 152C103.996 149.877 104.839 147.841 106.34 146.34L164.69 88.0001H8C5.87827 88.0001 3.84344 87.1572 2.34315 85.6569C0.842856 84.1566 0 82.1218 0 80.0001C0 77.8783 0.842856 75.8435 2.34315 74.3432C3.84344 72.8429 5.87827 72.0001 8 72.0001H164.69L106.34 13.6601C104.839 12.1589 103.996 10.123 103.996 8.00005C103.996 5.87714 104.839 3.84118 106.34 2.34005C107.841 0.838928 109.877 -0.00439453 112 -0.00439453C114.123 -0.00439453 116.159 0.838928 117.66 2.34005L189.66 74.34C190.404 75.083 190.994 75.9653 191.396 76.9365C191.799 77.9077 192.006 78.9487 192.006 80.0001C192.006 81.0514 191.799 82.0924 191.396 83.0636C190.994 84.0348 190.404 84.9171 189.66 85.6601Z" fill="black"/>
</svg>
